<svg class="docs-nav-logo" xmlns="http://www.w3.org/2000/svg" viewBox="0 0 158.3 52.9">
  <path
    d="M2.4 19.3c0 .5-.1.9-.1 1.4 0 8.5 5.7 15.6 13.5 17.7-.4-1.7-.5-3.3-.5-4.8 0-2.9.8-5.5 2.1-7.2.2-.3.5-.6.8-.8L2.4 19.3zm.4-2.4l7.6 3.1c.1-.2.1-.4.2-.6 0 .2.7-2.9.9-3.9 1-3.7 2.3-6 4.7-6.9.2-.1.4-.2.7-.2 1.2-.3 2.4-.2 3.7.2.2.1.4.1.6.2.1 0 .3.1.3.1.9.3 9.7 3.7 17 6.6-2.3-7.5-9.3-13-17.6-13-9-.1-16.4 6.1-18.1 14.4zm9.8 4l9.3 3.8c.4.1.7.2 1.1.4 1 .5 1.7 1.4 2.8 3 1 1.6 2 2.3 2.8 2.3.2 0 .4 0 .6-.1.6-.3 1.2-1.1 1.7-2.4.4-.9.7-2.1 1-3.7l.1-.8c.4-2.4 1-4.3 1.9-5.7v-.2l.1-.1c.3-.4.6-.7.9-1-6.7-2.4-13.9-5.2-14.3-5.3l-.3-.1c-.2-.1-.3-.1-.5-.2-.9-.3-1.7-.3-2.4-.2-.1 0-.2.1-.4.1-1.4.6-2.5 2.3-3.3 5.3-.2.9-.9 4-.9 3.8 0 .5-.1.8-.2 1.1zm8.7 6.1c-1.8-.3-3.6 2.5-3.6 6.7 0 1.6.3 3.4.7 5.3.8.1 1.5.1 2.3.1 10.2 0 18.4-8.2 18.4-18.4 0-.9-.1-1.7-.2-2.5-.9-.3-1.6-.3-2.2 0-.4.2-.7.4-.9.7v.1c-.7 1.1-1.2 2.7-1.6 4.9l-.1.9c-.3 1.7-.7 3.1-1.1 4.2-.7 1.7-1.7 2.9-2.8 3.5-.6.3-1.2.5-1.8.4-1.7-.1-3.2-1.3-4.6-3.4-.9-1.3-1.4-2-1.9-2.2-.2-.2-.4-.3-.6-.3zM.1 18.4v-.2C1.4 8 10.1 0 20.7 0c11.5 0 20.7 9.3 20.7 20.7s-9.3 20.7-20.7 20.7S0 32.2 0 20.7c0-.8 0-1.6.1-2.3zm57 10.7V16H60v.8c0 .3 0 .7-.1 1 .9-1.3 2.2-2.1 3.8-2.1 1.8 0 3.1.9 3.8 2.3.9-1.4 2.3-2.3 4.2-2.3 2.6 0 4.4 1.7 4.4 4.9v8.5h-2.9v-8.4c0-1.6-.9-2.7-2.4-2.7s-2.7 1.2-2.7 3.3v7.8h-2.9v-8.4c0-1.5-.9-2.5-2.4-2.5-1.4 0-2.7 1.1-2.8 3.1v7.9l-2.9-.1zm33.8 0c-1.7 0-2.5-.9-2.9-2.3-.8 1.3-2.5 2.6-5 2.6-3 0-4.5-1.9-4.5-3.9 0-2.4 1.9-4.3 5.9-4.3 1.4 0 2.7.3 3.3.4v-.7c0-1.6-1.2-2.8-3-2.8-1.2 0-2.3.6-3 1.5l-2.1-1.5s1.5-2.6 5.2-2.6c3.5 0 5.7 2.2 5.7 5.3v4.8c0 .5.3.8.8.8h.4v2.7h-.8zm-3.2-5.5c-.6-.1-1.8-.3-2.8-.3-2.1 0-3.4.9-3.4 2.2 0 .9.7 1.7 2.2 1.7 2.2-.2 3.7-1.9 4-3.6zm18.7 5.5h-2.9v-7.5c0-2.3-1.3-3.5-3-3.5-1.8 0-3.3 1.4-3.3 3.4v7.6h-2.9V16h2.9v.9c0 .3 0 .7-.1 1.1.9-1.3 2.4-2.3 4.2-2.3 3 0 5.1 2.1 5.1 5.8v7.6zm4.7-18.9c1.1 0 2.1.9 2.1 2s-.9 2.1-2.1 2.1c-1.1 0-2.1-.9-2.1-2.1 0-1 1-2 2.1-2zm-1.5 18.9V16h3v13.1h-3zm10.6-10.6v10.6h-3V18.5h-2V16h2v-3.2c0-3 2-4.9 4.6-4.9 1.3 0 2.3.4 3 1.1l-1.3 2.2c-.4-.4-.9-.6-1.4-.6-1.1 0-1.8.8-1.8 2.4v3h3v2.6h-3.1zm4.3 4c0-3.8 3-6.8 6.8-6.8s6.8 3 6.8 6.8c0 3.9-3 6.9-6.8 6.9-3.9 0-6.8-3-6.8-6.9zm10.6 0c0-2.5-1.5-4.3-3.9-4.3s-3.9 1.8-3.9 4.3 1.6 4.3 3.9 4.3 3.9-1.8 3.9-4.3zm5.2 6.6V8.3h3v20.8h-3zm15.2 0c0-.9 0-1.5.1-1.9-1 1.4-2.5 2.2-4.2 2.2-3.5 0-5.8-3-5.8-6.9 0-3.9 2.4-6.8 5.9-6.8 1.6 0 3.1.6 4.1 1.9 0-.2-.1-.3-.1-.5V8.3h2.9v20.8h-2.9zm-.1-6.6c0-2.6-1.3-4.3-3.4-4.3-2.1 0-3.6 1.7-3.6 4.2s1.5 4.3 3.6 4.3c2.1.1 3.4-1.7 3.4-4.2z"
    fill-rule="evenodd"
    clip-rule="evenodd"
    fill="#323940"
  />
  <path
    d="M59 42.2v7.5c0 .3.1.5.2.7.1.2.2.3.4.4.2.1.4.2.8.2s.6-.1.8-.2c.2-.1.3-.3.4-.4.1-.2.2-.4.2-.7v-7.5h2.3v6.3c0 .7 0 1.3-.1 1.9-.1.5-.3 1-.5 1.3-.3.4-.6.6-1.1.8s-1.1.3-1.9.3-1.4-.1-1.9-.3-.9-.4-1.1-.8c-.3-.4-.5-.8-.5-1.3-.1-.5-.1-1.2-.1-1.9v-6.3H59zm8.4 10.5V51h2.2v-7.1h-2.2v-1.7h6.8v1.7H72V51h2.2v1.7h-6.8z"
  />
  <linearGradient
    id="manifold-gradient"
    gradientUnits="userSpaceOnUse"
    x1="-552.174"
    y1="382.48"
    x2="-553.688"
    y2="382.354"
    gradientTransform="matrix(17.32 0 0 -10.65 9638.21 4120.408)"
  >
    <stop offset="0" stop-color="#fe1360" />
    <stop offset=".265" stop-color="#814eae" />
    <stop offset=".609" stop-color="#2d98cc" />
    <stop offset=".775" stop-color="#fd8745" />
    <stop offset="1" stop-color="#fdc935" />
  </linearGradient>
  <path
    d="M59 42.2v7.5c0 .3.1.5.2.7.1.2.2.3.4.4.2.1.4.2.8.2s.6-.1.8-.2c.2-.1.3-.3.4-.4.1-.2.2-.4.2-.7v-7.5h2.3v6.3c0 .7 0 1.3-.1 1.9-.1.5-.3 1-.5 1.3-.3.4-.6.6-1.1.8s-1.1.3-1.9.3-1.4-.1-1.9-.3-.9-.4-1.1-.8c-.3-.4-.5-.8-.5-1.3-.1-.5-.1-1.2-.1-1.9v-6.3H59zm8.4 10.5V51h2.2v-7.1h-2.2v-1.7h6.8v1.7H72V51h2.2v1.7h-6.8z"
    fill="url(#manifold-gradient)"
  />
</svg>
