<svg width="660" height="259" xmlns="http://www.w3.org/2000/svg"><defs><linearGradient x1="50%" y1="0%" x2="50%" y2="100%" id="a"><stop stop-color="#F41B68" offset="0%"/><stop stop-color="#735CB3" offset="100%"/></linearGradient><linearGradient x1="50%" y1="0%" x2="50%" y2="100%" id="b"><stop stop-color="#45B29B" offset="0%"/><stop stop-color="#3A8BC6" offset="100%"/></linearGradient><linearGradient x1="50%" y1="0%" x2="50%" y2="100%" id="c"><stop stop-color="#E3724B" offset="0%"/><stop stop-color="#AF567C" offset="100%"/></linearGradient><linearGradient x1="50%" y1="0%" x2="50%" y2="100%" id="d"><stop stop-color="#735EB4" offset="0%"/><stop stop-color="#3B90C8" offset="100%"/></linearGradient><linearGradient x1="50%" y1="0%" x2="50%" y2="100%" id="e"><stop stop-color="#FDC835" offset="0%"/><stop stop-color="#FD8844" offset="100%"/></linearGradient></defs><g fill="none" fill-rule="evenodd"><path fill="url(#a)" d="M0 0h90.792v134.142L210.216 259H121.88L0 134.142z"/><path fill="url(#b)" d="M79 0h82.774v134.142L283.402 259H197.23L79 134.293z"/><path fill="url(#c)" d="M157 0h77.372v134.142L356 259h-81.484L157 134.142z"/><path fill="url(#d)" d="M233 0h231.612v134.142L586 259H356L233 134z"/><path fill="url(#e)" d="M464 0h75.715v134.142L660 259h-78.958L464 134.142z"/><path d="M28.632 66v-5.952h12.544V26.576h-.512L30.296 37.648 25.88 33.68l11.392-12.352h11.072v38.72H59.16V66H28.632zm51.968.64c-2.048 0-3.488-.427-4.32-1.28-.832-.853-1.248-1.899-1.248-3.136V60.56c0-1.237.416-2.283 1.248-3.136.832-.853 2.272-1.28 4.32-1.28 2.048 0 3.488.427 4.32 1.28.832.853 1.248 1.899 1.248 3.136v1.664c0 1.237-.416 2.283-1.248 3.136-.832.853-2.272 1.28-4.32 1.28zm54.08-.64h-30.848v-6.848l14.592-12.736c2.304-2.048 4.085-3.99 5.344-5.824 1.259-1.835 1.888-3.776 1.888-5.824v-.704c0-2.347-.64-4.15-1.92-5.408-1.28-1.259-3.136-1.888-5.568-1.888-2.475 0-4.384.661-5.728 1.984-1.344 1.323-2.315 3.008-2.912 5.056l-6.272-2.368a16.976 16.976 0 011.856-4.064 14.095 14.095 0 013.104-3.488c1.259-1.024 2.752-1.835 4.48-2.432 1.728-.597 3.723-.896 5.984-.896 2.304 0 4.363.33 6.176.992 1.813.661 3.339 1.568 4.576 2.72a11.298 11.298 0 012.816 4.128c.64 1.6.96 3.36.96 5.28 0 1.792-.267 3.445-.8 4.96a18.314 18.314 0 01-2.24 4.352 26.847 26.847 0 01-3.424 4 66.284 66.284 0 01-4.352 3.84l-10.816 9.088h23.104V66zm22.72.64c-2.048 0-3.488-.427-4.32-1.28-.832-.853-1.248-1.899-1.248-3.136V60.56c0-1.237.416-2.283 1.248-3.136.832-.853 2.272-1.28 4.32-1.28 2.048 0 3.488.427 4.32 1.28.832.853 1.248 1.899 1.248 3.136v1.664c0 1.237-.416 2.283-1.248 3.136-.832.853-2.272 1.28-4.32 1.28zm36.544-26.88c2.859 0 4.981-.608 6.368-1.824 1.387-1.216 2.08-2.741 2.08-4.576v-.448c0-2.048-.672-3.616-2.016-4.704-1.344-1.088-3.147-1.632-5.408-1.632-2.176 0-4.021.49-5.536 1.472-1.515.981-2.784 2.325-3.808 4.032l-4.864-4.16a20.717 20.717 0 012.368-2.816 14.59 14.59 0 013.072-2.336c1.152-.661 2.475-1.195 3.968-1.6 1.493-.405 3.179-.608 5.056-.608 2.09 0 4.032.256 5.824.768 1.792.512 3.35 1.27 4.672 2.272 1.323 1.003 2.347 2.219 3.072 3.648.725 1.43 1.088 3.04 1.088 4.832 0 1.408-.224 2.688-.672 3.84a9.783 9.783 0 01-1.856 3.04 9.815 9.815 0 01-2.784 2.144c-1.067.555-2.197.96-3.392 1.216v.32a14.46 14.46 0 013.648 1.248 11.374 11.374 0 013.072 2.24c.896.917 1.6 2.005 2.112 3.264s.768 2.699.768 4.32c0 1.963-.384 3.744-1.152 5.344-.768 1.6-1.867 2.976-3.296 4.128-1.43 1.152-3.147 2.037-5.152 2.656-2.005.619-4.245.928-6.72.928-2.09 0-3.936-.224-5.536-.672-1.6-.448-3.019-1.045-4.256-1.792a15.547 15.547 0 01-3.232-2.56 21.897 21.897 0 01-2.4-2.976l5.312-4.096c1.11 1.792 2.421 3.253 3.936 4.384 1.515 1.13 3.595 1.696 6.24 1.696 2.816 0 4.97-.65 6.464-1.952 1.493-1.301 2.24-3.104 2.24-5.408v-.512c0-2.304-.779-4.064-2.336-5.28-1.557-1.216-3.808-1.824-6.752-1.824h-4.8V39.76h4.608zM224.536 50v-6.976h19.328V50h-19.328zm60.352 16c-2.005 0-3.51-.512-4.512-1.536-1.003-1.024-1.61-2.368-1.824-4.032h-.32c-.64 2.005-1.803 3.563-3.488 4.672-1.685 1.11-3.83 1.664-6.432 1.664-3.37 0-6.059-.885-8.064-2.656-2.005-1.77-3.008-4.213-3.008-7.328 0-3.2 1.184-5.643 3.552-7.328 2.368-1.685 6.005-2.528 10.912-2.528h6.336v-2.56c0-4.48-2.368-6.72-7.104-6.72-2.133 0-3.861.416-5.184 1.248-1.323.832-2.432 1.93-3.328 3.296l-4.16-3.392c.939-1.792 2.517-3.339 4.736-4.64 2.219-1.301 5.077-1.952 8.576-1.952 4.181 0 7.467 1.003 9.856 3.008 2.39 2.005 3.584 4.907 3.584 8.704v16.576h4.16V66h-4.288zm-14.592-4.352c2.261 0 4.117-.512 5.568-1.536 1.45-1.024 2.176-2.347 2.176-3.968v-4.8h-6.208c-5.035 0-7.552 1.515-7.552 4.544v1.28c0 1.493.533 2.613 1.6 3.36 1.067.747 2.539 1.12 4.416 1.12zm26.304-1.28h10.944V24.272H296.6V18.64h17.92v41.728h10.944V66H296.6v-5.632zm38.656-27.392h6.976v5.632h.384c.981-2.005 2.283-3.573 3.904-4.704 1.621-1.13 3.648-1.696 6.08-1.696 3.883 0 6.976 1.45 9.28 4.352 2.304 2.901 3.456 7.21 3.456 12.928 0 5.717-1.152 10.027-3.456 12.928-2.304 2.901-5.397 4.352-9.28 4.352-2.432 0-4.459-.565-6.08-1.696-1.621-1.13-2.923-2.699-3.904-4.704h-.384V78.8h-6.976V32.976zm14.464 28.096c2.645 0 4.683-.81 6.112-2.432 1.43-1.621 2.144-3.776 2.144-6.464V46.8c0-2.688-.715-4.843-2.144-6.464-1.43-1.621-3.467-2.432-6.112-2.432-1.024 0-1.984.128-2.88.384a7.202 7.202 0 00-2.368 1.152 5.783 5.783 0 00-1.632 1.888c-.405.747-.608 1.632-.608 2.656v11.008c0 1.024.203 1.91.608 2.656.405.747.95 1.376 1.632 1.888a7.202 7.202 0 002.368 1.152c.896.256 1.856.384 2.88.384zm24.256-42.432h6.976v19.968h.32c.341-.853.779-1.675 1.312-2.464a8.475 8.475 0 011.952-2.048c.768-.576 1.664-1.035 2.688-1.376 1.024-.341 2.219-.512 3.584-.512 3.328 0 6.016 1.088 8.064 3.264 2.048 2.176 3.072 5.27 3.072 9.28V66h-6.976V45.776c0-5.248-2.283-7.872-6.848-7.872a9.85 9.85 0 00-2.624.352 7.579 7.579 0 00-2.304 1.056 5.26 5.26 0 00-1.632 1.792c-.405.725-.608 1.557-.608 2.496V66h-6.976V18.64zM438.488 66c-2.005 0-3.51-.512-4.512-1.536-1.003-1.024-1.61-2.368-1.824-4.032h-.32c-.64 2.005-1.803 3.563-3.488 4.672-1.685 1.11-3.83 1.664-6.432 1.664-3.37 0-6.059-.885-8.064-2.656-2.005-1.77-3.008-4.213-3.008-7.328 0-3.2 1.184-5.643 3.552-7.328 2.368-1.685 6.005-2.528 10.912-2.528h6.336v-2.56c0-4.48-2.368-6.72-7.104-6.72-2.133 0-3.861.416-5.184 1.248-1.323.832-2.432 1.93-3.328 3.296l-4.16-3.392c.939-1.792 2.517-3.339 4.736-4.64 2.219-1.301 5.077-1.952 8.576-1.952 4.181 0 7.467 1.003 9.856 3.008 2.39 2.005 3.584 4.907 3.584 8.704v16.576h4.16V66h-4.288zm-14.592-4.352c2.261 0 4.117-.512 5.568-1.536 1.45-1.024 2.176-2.347 2.176-3.968v-4.8h-6.208c-5.035 0-7.552 1.515-7.552 4.544v1.28c0 1.493.533 2.613 1.6 3.36 1.067.747 2.539 1.12 4.416 1.12zM464.6 66.64c-2.048 0-3.488-.427-4.32-1.28-.832-.853-1.248-1.899-1.248-3.136V60.56c0-1.237.416-2.283 1.248-3.136.832-.853 2.272-1.28 4.32-1.28 2.048 0 3.488.427 4.32 1.28.832.853 1.248 1.899 1.248 3.136v1.664c0 1.237-.416 2.283-1.248 3.136-.832.853-2.272 1.28-4.32 1.28zm38.4.128c-2.816 0-5.259-.523-7.328-1.568-2.07-1.045-3.776-2.55-5.12-4.512-1.344-1.963-2.336-4.373-2.976-7.232-.64-2.859-.96-6.123-.96-9.792 0-3.627.32-6.88.96-9.76.64-2.88 1.632-5.301 2.976-7.264s3.05-3.467 5.12-4.512c2.07-1.045 4.512-1.568 7.328-1.568 2.816 0 5.259.523 7.328 1.568 2.07 1.045 3.776 2.55 5.12 4.512 1.344 1.963 2.336 4.384 2.976 7.264.64 2.88.96 6.133.96 9.76 0 3.67-.32 6.933-.96 9.792-.64 2.859-1.632 5.27-2.976 7.232-1.344 1.963-3.05 3.467-5.12 4.512-2.07 1.045-4.512 1.568-7.328 1.568zm0-5.888c3.243 0 5.557-1.205 6.944-3.616 1.387-2.41 2.08-5.664 2.08-9.76v-7.68c0-4.096-.693-7.35-2.08-9.76s-3.701-3.616-6.944-3.616c-1.621 0-3.008.31-4.16.928-1.152.619-2.09 1.515-2.816 2.688-.725 1.173-1.248 2.581-1.568 4.224-.32 1.643-.48 3.488-.48 5.536v7.68c0 2.048.16 3.893.48 5.536.32 1.643.843 3.05 1.568 4.224.725 1.173 1.664 2.07 2.816 2.688 1.152.619 2.539.928 4.16.928zm0-13.44c-1.493 0-2.528-.299-3.104-.896-.576-.597-.864-1.323-.864-2.176V42.96c0-.853.288-1.579.864-2.176.576-.597 1.61-.896 3.104-.896 1.493 0 2.528.299 3.104.896.576.597.864 1.323.864 2.176v1.408c0 .853-.288 1.579-.864 2.176-.576.597-1.61.896-3.104.896zM54.712 163.808l-1.922-1.922 8.485-8.486-.058-.058-11.94 5.03-1.46-1.458 5.03-11.94-.057-.059-8.486 8.485-1.93-1.93 11.957-11.958 2.477 2.478-5.46 12.786.066.066 12.786-5.46 2.47 2.469-11.958 11.957zm9.927 9.927l2.072-4.11-4.4-4.4-4.11 2.072-2.205-2.204 16.2-7.715 2.412 2.411-7.715 16.2-2.254-2.254zm6.596-13.092l-6.778 3.43 3.397 3.398 3.44-6.77-.059-.058zm-.646 12.512l2.08 2.08c-.962 1.011-.945 2.354.05 3.348 1.143 1.143 2.46 1.069 3.753-.224l8.353-8.353 2.13 2.13-8.37 8.37c-2.436 2.436-5.287 2.402-7.715-.026-2.278-2.278-2.403-5.203-.281-7.325zm24.005 6.223c3.48 3.48 3.29 8.046-.513 11.85-3.804 3.803-8.361 3.986-11.842.505-3.488-3.488-3.306-8.046.498-11.85 3.803-3.803 8.369-3.993 11.857-.505zm-1.823 1.823c-2.137-2.138-5.179-1.798-7.847.87-2.66 2.66-3 5.702-.862 7.84 2.13 2.129 5.18 1.798 7.84-.862 2.668-2.669 3-5.718.87-7.848zm9.397 9.613l-4.085 4.085 2.411 2.411c1.36 1.36 2.9 1.392 4.193.1 1.26-1.26 1.202-2.876-.149-4.226l-2.37-2.37zm-5.726 5.726l-4.5 4.499-2.137-2.138 11.957-11.957 4.748 4.748c2.586 2.585 2.702 5.568.415 7.855-1.583 1.583-3.73 2.072-5.668 1.16l-2.213 7.434-2.436-2.437 2.146-6.853-2.312-2.311zM134.84 163.83l-1.922-1.922 8.485-8.485-.058-.058-11.94 5.03-1.459-1.459 5.03-11.94-.058-.058-8.485 8.485-1.931-1.93 11.957-11.958 2.478 2.477-5.46 12.786.065.067 12.786-5.461 2.47 2.47-11.958 11.957zm4.251 4.251l-2.138-2.137 11.958-11.958 2.138 2.138-11.958 11.957zm4.168 4.169l-2.063-2.064 11.957-11.957 1.856 1.856-2.444 14.31.075.075 8.377-8.377 2.055 2.055-11.957 11.957-1.84-1.84 2.445-14.327-.075-.074-8.386 8.386zm27.395 3.082c3.48 3.48 3.29 8.046-.514 11.85-3.803 3.803-8.36 3.985-11.84.505-3.49-3.488-3.307-8.046.496-11.85 3.804-3.803 8.37-3.994 11.858-.505zm-1.823 1.823c-2.138-2.138-5.179-1.798-7.847.87-2.66 2.66-3 5.701-.862 7.84 2.13 2.129 5.18 1.797 7.84-.863 2.667-2.668 2.999-5.717.87-7.847zm9.397 9.612l-4.085 4.085 2.411 2.412c1.36 1.359 2.9 1.392 4.193.1 1.26-1.26 1.202-2.876-.15-4.227l-2.369-2.37zm-5.726 5.726l-4.5 4.5-2.137-2.138 11.957-11.957 4.748 4.748c2.585 2.585 2.701 5.568.414 7.855-1.582 1.583-3.729 2.072-5.668 1.16l-2.212 7.433-2.436-2.436 2.146-6.853-2.312-2.312zM212.884 139.687l4.649 4.648c2.378 2.378 2.411 5.643.025 8.03-2.387 2.386-5.701 2.303-8.121-.116l-2.42-2.42-3.952 3.953-2.138-2.138 11.957-11.957zm.39 3.886l-4.533 4.533 1.939 1.939c1.533 1.533 3.256 1.599 4.707.149 1.433-1.434 1.367-3.14-.166-4.674l-1.947-1.947zm4.657 25.075l2.071-4.11-4.4-4.4-4.11 2.071-2.204-2.204 16.2-7.715 2.411 2.412-7.715 16.2-2.253-2.254zm6.595-13.093l-6.778 3.43 3.398 3.398 3.438-6.77-.058-.058zm.357 20.045l-2.13-2.13 10.151-10.15-3.58-3.58 1.807-1.807 9.28 9.281-1.806 1.806-3.571-3.571-10.151 10.15zm9.289 9.687c-3.414-3.414-3.215-7.906.621-11.742 3.812-3.812 8.336-4.01 11.734-.613 2.776 2.776 3.157 6.62.853 9.454l-2.104-2.104c1.218-1.782.986-3.986-.564-5.536-2.055-2.055-5.063-1.682-7.731.986-2.685 2.685-3.058 5.677-.986 7.748 1.583 1.583 3.571 1.865 5.345.754l2.096 2.097c-2.933 2.187-6.438 1.781-9.264-1.044zm17.053 16.655l-2.13-2.13 5.188-5.187-5.817-5.817-5.187 5.188-2.138-2.138 11.957-11.957 2.138 2.137-4.972 4.972 5.817 5.817 4.972-4.972 2.13 2.13-11.958 11.957zM355.595 157.02l-2.13-2.13 10.151-10.151-3.58-3.58 1.807-1.807 9.28 9.281-1.806 1.807-3.571-3.572-10.151 10.151zm11.211 11.21l2.072-4.11-4.4-4.4-4.11 2.072-2.204-2.204 16.2-7.715 2.411 2.412-7.715 16.2-2.254-2.254zm6.596-13.092l-6.778 3.43 3.398 3.398 3.438-6.77-.058-.058zm11.9 21.611c-3.24 3.24-7.127 3.248-10.4-.025-3.488-3.488-3.29-8.03.564-11.883 3.795-3.795 8.294-3.969 11.75-.513 2.718 2.718 3.165 6.38 1.16 9.164l-2.171-2.17c.97-1.782.671-3.705-.796-5.171-2.154-2.155-5.038-1.84-7.73.853-2.752 2.751-3.092 5.776-.937 7.93 1.806 1.807 4.201 1.914 5.908.274l.207-.19-2.883-2.885 1.632-1.632 4.972 4.972-1.276 1.276zM507.466 154.789l-1.952-1.952 9.305-9.305-3.282-3.282 1.656-1.656 8.508 8.508-1.656 1.656-3.274-3.274-9.305 9.305zm10.277 10.277l1.9-3.768-4.034-4.033-3.768 1.899-2.02-2.02 14.85-7.072 2.21 2.21-7.072 14.85-2.066-2.066zm6.047-12.002l-6.214 3.145 3.114 3.114 3.153-6.205-.053-.054zm10.907 19.81c-2.97 2.97-6.532 2.978-9.533-.022-3.197-3.198-3.015-7.36.517-10.893 3.479-3.479 7.603-3.638 10.77-.47 2.492 2.49 2.903 5.848 1.064 8.4l-1.99-1.99c.889-1.633.615-3.395-.729-4.74-1.975-1.975-4.618-1.686-7.087.783-2.522 2.522-2.833 5.294-.858 7.269 1.656 1.656 3.85 1.755 5.416.25l.19-.174-2.644-2.643 1.496-1.497 4.558 4.558-1.17 1.17zm5.439 14.585l-2.249-2.249 7.148-14.774 2.157 2.157-6.076 11.637.045.046 11.637-6.077 2.112 2.112-14.774 7.148zm13.733 10.421l-1.656 1.656-7.094-7.094 10.96-10.961 7.095 7.094-1.656 1.656-5.135-5.135-2.962 2.963 4.854 4.853-1.557 1.558-4.854-4.854-3.13 3.13 5.135 5.134zm11.379-4.056l-3.745 3.745 2.21 2.21c1.246 1.246 2.659 1.276 3.844.091 1.155-1.154 1.101-2.635-.137-3.874l-2.172-2.172zm-5.249 5.249l-4.124 4.124-1.96-1.96 10.96-10.96 4.353 4.352c2.37 2.37 2.476 5.105.38 7.201-1.45 1.45-3.418 1.899-5.196 1.063l-2.028 6.814-2.233-2.233 1.967-6.282-2.119-2.12zm6.244 8.37l1.876 1.877c-.866 1.154-.486 2.75.881 4.117 1.322 1.321 2.894 1.587 3.806.676.79-.79.729-1.823-.403-3.548l-.934-1.42c-1.747-2.644-1.74-4.702-.137-6.305 1.93-1.93 4.93-1.542 7.307.836 2.423 2.423 2.704 5.347.79 7.353l-1.876-1.877c.942-1.124.699-2.613-.554-3.866-1.216-1.215-2.659-1.504-3.578-.585-.744.745-.676 1.77.403 3.426l.941 1.428c1.831 2.788 1.869 4.68.244 6.305-2.097 2.096-5.067 1.77-7.703-.866-2.537-2.537-2.977-5.454-1.063-7.55zm8.955 15.078l-1.96-1.96 10.962-10.96 1.96 1.96-10.962 10.96zm17.904-4.383c3.19 3.19 3.015 7.376-.471 10.862-3.487 3.487-7.664 3.654-10.855.464-3.197-3.198-3.03-7.376.456-10.862 3.487-3.487 7.672-3.662 10.87-.464zm-1.671 1.671c-1.96-1.96-4.748-1.648-7.193.798-2.439 2.438-2.75 5.226-.79 7.186 1.952 1.952 4.747 1.648 7.185-.79 2.446-2.446 2.75-5.241.798-7.194zm-.828 18.117l-1.892-1.892 10.961-10.96 1.702 1.7-2.241 13.119.068.068 7.68-7.68 1.884 1.885-10.961 10.96-1.687-1.686 2.241-13.133-.068-.068-7.687 7.687z" fill="#FFF" fill-rule="nonzero"/></g></svg>